<svg width="179" height="32" viewBox="0 0 179 32" fill="none" xmlns="http://www.w3.org/2000/svg">
  <circle cx="16" cy="16" r="15.5" stroke="#181818"/>
  <circle cx="15.9988" cy="15.9988" r="13.2957" stroke="#181818"/>
  <circle cx="15.9636" cy="16.3425" r="11.0534" stroke="#181818"/>
  <path d="M12.9789 20.0983V19.149C2.14715 3.75624 29.8145 3.94679 18.9456 19.149V20.0983" stroke="#181818" stroke-linecap="round"/>
  <path d="M13.8351 16.4492L14.8993 17.6274V20.6677M12.543 21.2758H19.3458M18.0917 16.4492L16.9135 17.6274V20.6677" stroke="#181818" stroke-linecap="round"/>
  <path d="M12.4648 23.1797H19.3817" stroke="#181818" stroke-linecap="round"/>
  <path d="M13.9102 25.0039H18.0147" stroke="#181818" stroke-linecap="round"/>
  <path d="M48.8984 3.625H51.4453V13.0312H54.4531V3.625H56.9922V13.0312H59.9531V3.625H62.4922V15H48.8984V3.625ZM68.8828 3.625V15H66.3438V3.625H68.8828ZM75.5156 3.625L71.2891 10.3984H68.3828L68.0703 8.125H69.9609L72.4375 3.625H75.5156ZM72.8828 15L69.9609 9.96875L71.7656 8.21875L75.8984 15H72.8828ZM87.9219 9.0625V9.57031C87.9219 10.4349 87.8021 11.2109 87.5625 11.8984C87.3281 12.5859 86.9922 13.1719 86.5547 13.6562C86.1224 14.1406 85.6068 14.513 85.0078 14.7734C84.4141 15.0286 83.7552 15.1562 83.0312 15.1562C82.3073 15.1562 81.6458 15.0286 81.0469 14.7734C80.4479 14.513 79.9271 14.1406 79.4844 13.6562C79.0469 13.1719 78.7083 12.5859 78.4688 11.8984C78.2292 11.2109 78.1094 10.4349 78.1094 9.57031V9.0625C78.1094 8.19792 78.2292 7.42188 78.4688 6.73438C78.7083 6.04167 79.0443 5.45312 79.4766 4.96875C79.9141 4.48438 80.4323 4.11458 81.0312 3.85938C81.6302 3.59896 82.2917 3.46875 83.0156 3.46875C83.7396 3.46875 84.401 3.59896 85 3.85938C85.599 4.11458 86.1146 4.48438 86.5469 4.96875C86.9844 5.45312 87.3229 6.04167 87.5625 6.73438C87.8021 7.42188 87.9219 8.19792 87.9219 9.0625ZM85.3516 9.57031V9.04688C85.3516 8.46875 85.2995 7.95833 85.1953 7.51562C85.0911 7.06771 84.9401 6.69271 84.7422 6.39062C84.5443 6.08854 84.2995 5.86198 84.0078 5.71094C83.7161 5.55469 83.3854 5.47656 83.0156 5.47656C82.6302 5.47656 82.2943 5.55469 82.0078 5.71094C81.7214 5.86198 81.4792 6.08854 81.2812 6.39062C81.0885 6.69271 80.9401 7.06771 80.8359 7.51562C80.737 7.95833 80.6875 8.46875 80.6875 9.04688V9.57031C80.6875 10.1432 80.737 10.6536 80.8359 11.1016C80.9401 11.5443 81.0911 11.9193 81.2891 12.2266C81.487 12.5339 81.7292 12.7656 82.0156 12.9219C82.3073 13.0781 82.6458 13.1562 83.0312 13.1562C83.401 13.1562 83.7292 13.0781 84.0156 12.9219C84.3073 12.7656 84.5521 12.5339 84.75 12.2266C84.9479 11.9193 85.0964 11.5443 85.1953 11.1016C85.2995 10.6536 85.3516 10.1432 85.3516 9.57031ZM98.8906 3.625V5.60156H93.125V3.625H98.8906ZM100.656 3.625V15H98.1094V3.625H100.656ZM92.8828 3.625H95.4141L95.125 9.375C95.0781 10.2344 94.9922 10.9818 94.8672 11.6172C94.7474 12.2474 94.5807 12.7812 94.3672 13.2188C94.1589 13.651 93.9062 14 93.6094 14.2656C93.3125 14.526 92.9661 14.7135 92.5703 14.8281C92.1745 14.9427 91.724 15 91.2188 15H90.6016V13.0312L90.8984 13C91.1484 12.9792 91.3646 12.9141 91.5469 12.8047C91.7344 12.6953 91.8958 12.5339 92.0312 12.3203C92.1667 12.1016 92.2786 11.8229 92.3672 11.4844C92.4609 11.1458 92.5339 10.7344 92.5859 10.25C92.6432 9.76562 92.6823 9.19792 92.7031 8.54688L92.8828 3.625ZM109.398 5.78906L106.461 15H103.742L107.953 3.625H109.672L109.398 5.78906ZM111.836 15L108.891 5.78906L108.586 3.625H110.328L114.555 15H111.836ZM111.711 10.7656V12.7344H105.781V10.7656H111.711Z" fill="#181818"/>
  <path d="M50.0039 22.6602V29H48.9199V22.6602H50.0039ZM54.1641 22.6602L51.1582 26.293H49.6406L49.4766 25.3438H50.7188L52.8457 22.6602H54.1641ZM52.998 29L50.666 26.1289L51.3633 25.3438L54.375 29H52.998ZM56.4023 23.8789V31.4375H55.3125V22.6602H56.3086L56.4023 23.8789ZM60.6738 25.7773V25.9004C60.6738 26.3613 60.6191 26.7891 60.5098 27.1836C60.4004 27.5742 60.2402 27.9141 60.0293 28.2031C59.8223 28.4922 59.5664 28.7168 59.2617 28.877C58.957 29.0371 58.6074 29.1172 58.2129 29.1172C57.8105 29.1172 57.4551 29.0508 57.1465 28.918C56.8379 28.7852 56.5762 28.5918 56.3613 28.3379C56.1465 28.084 55.9746 27.7793 55.8457 27.4238C55.7207 27.0684 55.6348 26.668 55.5879 26.2227V25.5664C55.6348 25.0977 55.7227 24.6777 55.8516 24.3066C55.9805 23.9355 56.1504 23.6191 56.3613 23.3574C56.5762 23.0918 56.8359 22.8906 57.1406 22.7539C57.4453 22.6133 57.7969 22.543 58.1953 22.543C58.5938 22.543 58.9473 22.6211 59.2559 22.7773C59.5645 22.9297 59.8242 23.1484 60.0352 23.4336C60.2461 23.7188 60.4043 24.0605 60.5098 24.459C60.6191 24.8535 60.6738 25.293 60.6738 25.7773ZM59.584 25.9004V25.7773C59.584 25.4609 59.5508 25.1641 59.4844 24.8867C59.418 24.6055 59.3145 24.3594 59.1738 24.1484C59.0371 23.9336 58.8613 23.7656 58.6465 23.6445C58.4316 23.5195 58.1758 23.457 57.8789 23.457C57.6055 23.457 57.3672 23.5039 57.1641 23.5977C56.9648 23.6914 56.7949 23.8184 56.6543 23.9785C56.5137 24.1348 56.3984 24.3145 56.3086 24.5176C56.2227 24.7168 56.1582 24.9238 56.1152 25.1387V26.6562C56.1934 26.9297 56.3027 27.1875 56.4434 27.4297C56.584 27.668 56.7715 27.8613 57.0059 28.0098C57.2402 28.1543 57.5352 28.2266 57.8906 28.2266C58.1836 28.2266 58.4355 28.166 58.6465 28.0449C58.8613 27.9199 59.0371 27.75 59.1738 27.5352C59.3145 27.3203 59.418 27.0742 59.4844 26.7969C59.5508 26.5156 59.584 26.2168 59.584 25.9004ZM64.6875 29.1172C64.2461 29.1172 63.8457 29.043 63.4863 28.8945C63.1309 28.7422 62.8242 28.5293 62.5664 28.2559C62.3125 27.9824 62.1172 27.6582 61.9805 27.2832C61.8438 26.9082 61.7754 26.498 61.7754 26.0527V25.8066C61.7754 25.291 61.8516 24.832 62.0039 24.4297C62.1562 24.0234 62.3633 23.6797 62.625 23.3984C62.8867 23.1172 63.1836 22.9043 63.5156 22.7598C63.8477 22.6152 64.1914 22.543 64.5469 22.543C65 22.543 65.3906 22.6211 65.7188 22.7773C66.0508 22.9336 66.3223 23.1523 66.5332 23.4336C66.7441 23.7109 66.9004 24.0391 67.002 24.418C67.1035 24.793 67.1543 25.2031 67.1543 25.6484V26.1348H62.4199V25.25H66.0703V25.168C66.0547 24.8867 65.9961 24.6133 65.8945 24.3477C65.7969 24.082 65.6406 23.8633 65.4258 23.6914C65.2109 23.5195 64.918 23.4336 64.5469 23.4336C64.3008 23.4336 64.0742 23.4863 63.8672 23.5918C63.6602 23.6934 63.4824 23.8457 63.334 24.0488C63.1855 24.252 63.0703 24.5 62.9883 24.793C62.9062 25.0859 62.8652 25.4238 62.8652 25.8066V26.0527C62.8652 26.3535 62.9062 26.6367 62.9883 26.9023C63.0742 27.1641 63.1973 27.3945 63.3574 27.5938C63.5215 27.793 63.7188 27.9492 63.9492 28.0625C64.1836 28.1758 64.4492 28.2324 64.7461 28.2324C65.1289 28.2324 65.4531 28.1543 65.7188 27.998C65.9844 27.8418 66.2168 27.6328 66.416 27.3711L67.0723 27.8926C66.9355 28.0996 66.7617 28.2969 66.5508 28.4844C66.3398 28.6719 66.0801 28.8242 65.7715 28.9414C65.4668 29.0586 65.1055 29.1172 64.6875 29.1172ZM72.1582 27.916V24.6523C72.1582 24.4023 72.1074 24.1855 72.0059 24.002C71.9082 23.8145 71.7598 23.6699 71.5605 23.5684C71.3613 23.4668 71.1152 23.416 70.8223 23.416C70.5488 23.416 70.3086 23.4629 70.1016 23.5566C69.8984 23.6504 69.7383 23.7734 69.6211 23.9258C69.5078 24.0781 69.4512 24.2422 69.4512 24.418H68.3672C68.3672 24.1914 68.4258 23.9668 68.543 23.7441C68.6602 23.5215 68.8281 23.3203 69.0469 23.1406C69.2695 22.957 69.5352 22.8125 69.8438 22.707C70.1562 22.5977 70.5039 22.543 70.8867 22.543C71.3477 22.543 71.7539 22.6211 72.1055 22.7773C72.4609 22.9336 72.7383 23.1699 72.9375 23.4863C73.1406 23.7988 73.2422 24.1914 73.2422 24.6641V27.6172C73.2422 27.8281 73.2598 28.0527 73.2949 28.291C73.334 28.5293 73.3906 28.7344 73.4648 28.9062V29H72.334C72.2793 28.875 72.2363 28.709 72.2051 28.502C72.1738 28.291 72.1582 28.0957 72.1582 27.916ZM72.3457 25.1562L72.3574 25.918H71.2617C70.9531 25.918 70.6777 25.9434 70.4355 25.9941C70.1934 26.041 69.9902 26.1133 69.8262 26.2109C69.6621 26.3086 69.5371 26.4316 69.4512 26.5801C69.3652 26.7246 69.3223 26.8945 69.3223 27.0898C69.3223 27.2891 69.3672 27.4707 69.457 27.6348C69.5469 27.7988 69.6816 27.9297 69.8613 28.0273C70.0449 28.1211 70.2695 28.168 70.5352 28.168C70.8672 28.168 71.1602 28.0977 71.4141 27.957C71.668 27.8164 71.8691 27.6445 72.0176 27.4414C72.1699 27.2383 72.252 27.041 72.2637 26.8496L72.7266 27.3711C72.6992 27.5352 72.625 27.7168 72.5039 27.916C72.3828 28.1152 72.2207 28.3066 72.0176 28.4902C71.8184 28.6699 71.5801 28.8203 71.3027 28.9414C71.0293 29.0586 70.7207 29.1172 70.377 29.1172C69.9473 29.1172 69.5703 29.0332 69.2461 28.8652C68.9258 28.6973 68.6758 28.4727 68.4961 28.1914C68.3203 27.9062 68.2324 27.5879 68.2324 27.2363C68.2324 26.8965 68.2988 26.5977 68.4316 26.3398C68.5645 26.0781 68.7559 25.8613 69.0059 25.6895C69.2559 25.5137 69.5566 25.3809 69.9082 25.291C70.2598 25.2012 70.6523 25.1562 71.0859 25.1562H72.3457ZM77.4375 22.6602V29H76.3477V22.6602H77.4375ZM79.5645 22.6602V23.5391H74.2617V22.6602H79.5645ZM81.8027 27.2832L84.7266 22.6602H85.8164V29H84.7266V24.377L81.8027 29H80.7246V22.6602H81.8027V27.2832ZM90.5332 26.2109H88.4531L88.4414 25.3438H90.1406C90.4766 25.3438 90.7559 25.3105 90.9785 25.2441C91.2051 25.1777 91.375 25.0781 91.4883 24.9453C91.6016 24.8125 91.6582 24.6484 91.6582 24.4531C91.6582 24.3008 91.625 24.168 91.5586 24.0547C91.4961 23.9375 91.4004 23.8418 91.2715 23.7676C91.1426 23.6895 90.9824 23.6328 90.791 23.5977C90.6035 23.5586 90.3828 23.5391 90.1289 23.5391H88.7402V29H87.6562V22.6602H90.1289C90.5312 22.6602 90.8926 22.6953 91.2129 22.7656C91.5371 22.8359 91.8125 22.9434 92.0391 23.0879C92.2695 23.2285 92.4453 23.4082 92.5664 23.627C92.6875 23.8457 92.748 24.1035 92.748 24.4004C92.748 24.5918 92.709 24.7734 92.6309 24.9453C92.5527 25.1172 92.4375 25.2695 92.2852 25.4023C92.1328 25.5352 91.9453 25.6445 91.7227 25.7305C91.5 25.8125 91.2441 25.8652 90.9551 25.8887L90.5332 26.2109ZM90.5332 29H88.0605L88.5996 28.1211H90.5332C90.834 28.1211 91.084 28.084 91.2832 28.0098C91.4824 27.9316 91.6309 27.8223 91.7285 27.6816C91.8301 27.5371 91.8809 27.3652 91.8809 27.166C91.8809 26.9668 91.8301 26.7969 91.7285 26.6562C91.6309 26.5117 91.4824 26.4023 91.2832 26.3281C91.084 26.25 90.834 26.2109 90.5332 26.2109H88.8867L88.8984 25.3438H90.9551L91.3477 25.6719C91.6953 25.6992 91.9902 25.7852 92.2324 25.9297C92.4746 26.0742 92.6582 26.2578 92.7832 26.4805C92.9082 26.6992 92.9707 26.9375 92.9707 27.1953C92.9707 27.4922 92.9141 27.7539 92.8008 27.9805C92.6914 28.207 92.5312 28.3965 92.3203 28.5488C92.1094 28.6973 91.8535 28.8105 91.5527 28.8887C91.252 28.9629 90.9121 29 90.5332 29ZM98.7246 25.4082V26.2871H95.373V25.4082H98.7246ZM95.6016 22.6602V29H94.5176V22.6602H95.6016ZM99.6035 22.6602V29H98.5137V22.6602H99.6035ZM102.24 24.8398H104.145C104.656 24.8398 105.088 24.9297 105.439 25.1094C105.791 25.2852 106.057 25.5293 106.236 25.8418C106.42 26.1504 106.512 26.502 106.512 26.8965C106.512 27.1895 106.461 27.4648 106.359 27.7227C106.258 27.9766 106.105 28.1992 105.902 28.3906C105.703 28.582 105.455 28.7324 105.158 28.8418C104.865 28.9473 104.527 29 104.145 29H101.449V22.6602H102.533V28.1094H104.145C104.457 28.1094 104.707 28.0527 104.895 27.9395C105.082 27.8262 105.217 27.6797 105.299 27.5C105.381 27.3203 105.422 27.1328 105.422 26.9375C105.422 26.7461 105.381 26.5586 105.299 26.375C105.217 26.1914 105.082 26.0391 104.895 25.918C104.707 25.793 104.457 25.7305 104.145 25.7305H102.24V24.8398ZM108.768 22.6602V29H107.684V22.6602H108.768ZM111.398 22.6602L112.787 24.9688L114.193 22.6602H115.465L113.391 25.7891L115.529 29H114.275L112.811 26.6211L111.346 29H110.086L112.219 25.7891L110.15 22.6602H111.398ZM120.768 27.2832L123.691 22.6602H124.781V29H123.691V24.377L120.768 29H119.689V22.6602H120.768V27.2832ZM130.822 25.4082V26.2871H127.471V25.4082H130.822ZM127.699 22.6602V29H126.615V22.6602H127.699ZM131.701 22.6602V29H130.611V22.6602H131.701ZM134.59 22.6602H135.674L135.58 25.0332C135.557 25.6348 135.488 26.1543 135.375 26.5918C135.262 27.0293 135.117 27.4023 134.941 27.7109C134.766 28.0156 134.568 28.2715 134.35 28.4785C134.135 28.6855 133.912 28.8594 133.682 29H133.143L133.172 28.1152L133.395 28.1094C133.523 27.957 133.648 27.8008 133.77 27.6406C133.891 27.4766 134.002 27.2832 134.104 27.0605C134.205 26.834 134.289 26.5586 134.355 26.2344C134.426 25.9062 134.471 25.5059 134.49 25.0332L134.59 22.6602ZM134.859 22.6602H138.674V29H137.59V23.6621H134.859V22.6602ZM132.896 28.1094H139.488V30.8691H138.404V29H133.98V30.8691H132.891L132.896 28.1094ZM142.471 28.3438L144.234 22.6602H145.395L142.852 29.9785C142.793 30.1348 142.715 30.3027 142.617 30.4824C142.523 30.666 142.402 30.8398 142.254 31.0039C142.105 31.168 141.926 31.3008 141.715 31.4023C141.508 31.5078 141.26 31.5605 140.971 31.5605C140.885 31.5605 140.775 31.5488 140.643 31.5254C140.51 31.502 140.416 31.4824 140.361 31.4668L140.355 30.5879C140.387 30.5918 140.436 30.5957 140.502 30.5996C140.572 30.6074 140.621 30.6113 140.648 30.6113C140.895 30.6113 141.104 30.5781 141.275 30.5117C141.447 30.4492 141.592 30.3418 141.709 30.1895C141.83 30.041 141.934 29.8359 142.02 29.5742L142.471 28.3438ZM141.176 22.6602L142.822 27.582L143.104 28.7246L142.324 29.123L139.992 22.6602H141.176ZM148.828 28.2266C149.086 28.2266 149.324 28.1738 149.543 28.0684C149.762 27.9629 149.941 27.8184 150.082 27.6348C150.223 27.4473 150.303 27.2344 150.322 26.9961H151.354C151.334 27.3711 151.207 27.7207 150.973 28.0449C150.742 28.3652 150.439 28.625 150.064 28.8242C149.689 29.0195 149.277 29.1172 148.828 29.1172C148.352 29.1172 147.936 29.0332 147.58 28.8652C147.229 28.6973 146.936 28.4668 146.701 28.1738C146.471 27.8809 146.297 27.5449 146.18 27.166C146.066 26.7832 146.01 26.3789 146.01 25.9531V25.707C146.01 25.2812 146.066 24.8789 146.18 24.5C146.297 24.1172 146.471 23.7793 146.701 23.4863C146.936 23.1934 147.229 22.9629 147.58 22.7949C147.936 22.627 148.352 22.543 148.828 22.543C149.324 22.543 149.758 22.6445 150.129 22.8477C150.5 23.0469 150.791 23.3203 151.002 23.668C151.217 24.0117 151.334 24.4023 151.354 24.8398H150.322C150.303 24.5781 150.229 24.3418 150.1 24.1309C149.975 23.9199 149.803 23.752 149.584 23.627C149.369 23.498 149.117 23.4336 148.828 23.4336C148.496 23.4336 148.217 23.5 147.99 23.6328C147.768 23.7617 147.59 23.9375 147.457 24.1602C147.328 24.3789 147.234 24.623 147.176 24.8926C147.121 25.1582 147.094 25.4297 147.094 25.707V25.9531C147.094 26.2305 147.121 26.5039 147.176 26.7734C147.23 27.043 147.322 27.2871 147.451 27.5059C147.584 27.7246 147.762 27.9004 147.984 28.0332C148.211 28.1621 148.492 28.2266 148.828 28.2266ZM155.156 22.6602V29H154.066V22.6602H155.156ZM157.283 22.6602V23.5391H151.98V22.6602H157.283ZM159.434 23.8789V31.4375H158.344V22.6602H159.34L159.434 23.8789ZM163.705 25.7773V25.9004C163.705 26.3613 163.65 26.7891 163.541 27.1836C163.432 27.5742 163.271 27.9141 163.061 28.2031C162.854 28.4922 162.598 28.7168 162.293 28.877C161.988 29.0371 161.639 29.1172 161.244 29.1172C160.842 29.1172 160.486 29.0508 160.178 28.918C159.869 28.7852 159.607 28.5918 159.393 28.3379C159.178 28.084 159.006 27.7793 158.877 27.4238C158.752 27.0684 158.666 26.668 158.619 26.2227V25.5664C158.666 25.0977 158.754 24.6777 158.883 24.3066C159.012 23.9355 159.182 23.6191 159.393 23.3574C159.607 23.0918 159.867 22.8906 160.172 22.7539C160.477 22.6133 160.828 22.543 161.227 22.543C161.625 22.543 161.979 22.6211 162.287 22.7773C162.596 22.9297 162.855 23.1484 163.066 23.4336C163.277 23.7188 163.436 24.0605 163.541 24.459C163.65 24.8535 163.705 25.293 163.705 25.7773ZM162.615 25.9004V25.7773C162.615 25.4609 162.582 25.1641 162.516 24.8867C162.449 24.6055 162.346 24.3594 162.205 24.1484C162.068 23.9336 161.893 23.7656 161.678 23.6445C161.463 23.5195 161.207 23.457 160.91 23.457C160.637 23.457 160.398 23.5039 160.195 23.5977C159.996 23.6914 159.826 23.8184 159.686 23.9785C159.545 24.1348 159.43 24.3145 159.34 24.5176C159.254 24.7168 159.189 24.9238 159.146 25.1387V26.6562C159.225 26.9297 159.334 27.1875 159.475 27.4297C159.615 27.668 159.803 27.8613 160.037 28.0098C160.271 28.1543 160.566 28.2266 160.922 28.2266C161.215 28.2266 161.467 28.166 161.678 28.0449C161.893 27.9199 162.068 27.75 162.205 27.5352C162.346 27.3203 162.449 27.0742 162.516 26.7969C162.582 26.5156 162.615 26.2168 162.615 25.9004ZM166.26 27.2832L169.184 22.6602H170.273V29H169.184V24.377L166.26 29H165.182V22.6602H166.26V27.2832ZM173.186 27.2832L176.109 22.6602H177.199V29H176.109V24.377L173.186 29H172.107V22.6602H173.186V27.2832ZM175.518 20.3633H176.396C176.396 20.668 176.326 20.9395 176.186 21.1777C176.045 21.4121 175.844 21.5957 175.582 21.7285C175.32 21.8613 175.01 21.9277 174.65 21.9277C174.107 21.9277 173.678 21.7832 173.361 21.4941C173.049 21.2012 172.893 20.8242 172.893 20.3633H173.771C173.771 20.5938 173.838 20.7969 173.971 20.9727C174.104 21.1484 174.33 21.2363 174.65 21.2363C174.963 21.2363 175.186 21.1484 175.318 20.9727C175.451 20.7969 175.518 20.5938 175.518 20.3633Z" fill="#181818"/>
</svg>
