<svg width="186" height="98" fill="none" xmlns="http://www.w3.org/2000/svg"><rect x="1" y="1" width="184" height="89" rx="12" fill="#fff" stroke="#262626" stroke-width="2" stroke-linecap="round"/><ellipse cx="70.7" cy="43.93" rx="24.72" ry="27.93" fill="#fff" stroke="#262626" stroke-width="2"/><path d="M61.5 59h19" stroke="#262626" stroke-width="2" stroke-linecap="round"/><mask id="a" style="mask-type:alpha" maskUnits="userSpaceOnUse" x="43" y="11" width="58" height="25"><path transform="matrix(1 0 0 -1 43.14 35.4)" fill="#C4C4C4" d="M0 0h57.7v24.02H0z"/></mask><g mask="url(#a)"><ellipse cx="70.7" cy="43.93" rx="24.72" ry="27.93" fill="#262626" stroke="#262626" stroke-width="2"/></g><circle cx="82.74" cy="45.7" r="6.58" stroke="#262626" stroke-width="2"/><circle cx="63.48" cy="45.7" r="6.58" stroke="#262626" stroke-width="2"/><path d="M82.74 52.28a6.58 6.58 0 100-13.17v13.17zm-19.26 0a6.58 6.58 0 100-13.17v13.17z" fill="#262626"/><path d="M94.94 50.35c5.23 0 9.47-2.44 9.47-5.46 0-3.01-3.98-5.36-9.21-5.36m.22 5.36h5.62" stroke="#262626" stroke-width="2" stroke-linecap="round"/><path d="M46.2 39.44c-5.24 0-9.2 2.44-9.2 5.45 0 3.02 4.3 5.39 9.54 5.39-.7-2.6-.54-8.29-.35-10.84z" fill="#fff"/><path d="M45.99 44.9h-5.62m-3.37 0c0-3.02 3.96-5.46 9.2-5.46-.2 2.55-.35 8.25.34 10.84-5.23 0-9.54-2.37-9.54-5.39z" stroke="#262626" stroke-width="2" stroke-linecap="round"/><path d="M94.14 35.26H47.59" stroke="#262626" stroke-width="2"/><path d="M74.18 50.51c.21 1.5-.29 4.56-4.01 4.81m-15.19 11.4c-3.05 5.62-10.4 18.29-13.48 22.78m45.1-22.78l23 23.57" stroke="#262626" stroke-width="2" stroke-linecap="round"/><rect x="124.28" y="61.87" width="3.72" height="47.59" rx="1.86" transform="rotate(-45 124.28 61.87)" fill="#fff" stroke="#262626" stroke-width="2"/><circle cx="106.25" cy="40.73" r="30.73" fill="#fff" stroke="#262626" stroke-width="2"/><circle cx="106.25" cy="40.73" r="27.59" fill="#fff" stroke="#262626" stroke-width="2"/><mask id="b" style="mask-type:alpha" maskUnits="userSpaceOnUse" x="77" y="12" width="58" height="58"><circle cx="106.25" cy="40.73" r="27.59" fill="#72CB7C" stroke="#262626" stroke-width="2"/></mask><g mask="url(#b)"><path d="M93.8 67.07c-7.32 3.66-25.05 8.57-37.4-1.05" stroke="#262626" stroke-width="2" stroke-linecap="round"/><ellipse cx="74.71" cy="41.17" rx="40.28" ry="45.51" fill="#fff" stroke="#262626" stroke-width="2"/><mask id="c" style="mask-type:alpha" maskUnits="userSpaceOnUse" x="34" y="-11" width="89" height="38"><path transform="matrix(1 0 0 -1 34.05 26.84)" fill="#C4C4C4" d="M0 0h88.87v36.99H0z"/></mask><g mask="url(#c)"><ellipse cx="76.51" cy="39.98" rx="38.07" ry="43.01" fill="#262626" stroke="#262626" stroke-width="2"/></g><circle cx="94.32" cy="44.05" r="10.72" stroke="#262626" stroke-width="2"/><path d="M94.32 54.77a10.72 10.72 0 100-21.44v21.44z" fill="#262626"/><path d="M114.2 51.63c8.53 0 15.43-3.98 15.43-8.89 0-4.9-6.57-8.87-15.09-8.87.49 2.3.64 5.64.58 8.87-.08 3.62-.43 7.12-.92 8.9z" fill="#fff"/><path d="M114.99 42.74h9.15m5.5 0c0 4.91-6.91 8.9-15.44 8.9.92-3.37 1.37-12.89.34-17.77 8.52 0 15.1 3.96 15.1 8.87z" stroke="#262626" stroke-width="2" stroke-linecap="round"/><path d="M112.9 27.05H37.05" stroke="#262626" stroke-width="2"/></g><path d="M116.4 79.9c-5.5-9.6 16.45-28.29 32.73-26.3C166.19 55.68 174 76.47 174 89.9h-18.59c-5.45 5.93-10.05 7.17-12.55 5.3-4.11-3.1-1.77-6.53.57-9.3-4.31 4.47-8.9 7.4-12.31 6.15-7-2.57-5.01-10.44-2.51-12.15-5.18 3.21-9.84 4.16-12.22 0z" fill="#fff"/><path d="M147.7 61.89c-4.62 5.67-12.3 13.8-19.1 18m0 0c-5.17 3.22-9.83 4.17-12.2 0-5.5-9.6 16.45-28.28 32.73-26.3C166.19 55.69 174 76.48 174 89.9h-18.59m-26.8-10c-2.5 1.71-4.5 9.58 2.5 12.15 3.43 1.25 8-1.68 12.32-6.15m10.99-16a62.6 62.6 0 01-11 16m0 0c-2.33 2.77-4.67 6.2-.56 9.3 2.5 1.87 7.1.63 12.55-5.3m8-10.86a60.07 60.07 0 01-8 10.86" stroke="#262626" stroke-width="2" stroke-linecap="round"/></svg>